<svg viewBox="0 0 176 36" xmlns="http://www.w3.org/2000/svg">
    <g>
        <g>
            <g>
                <g id="text" transform="translate(42.210730, 13.950000)" fill="#ffffff">
                    <polygon points="5.6188406 9.144 3.84154671 9.144 0.0740539124 0.288 1.9901989 0.288 4.72093692 7.155 7.47018841 0.288 9.3863334 0.288"></polygon>
                    <polygon points="10.4508584 9.108 10.4508584 0.288 12.1448416 0.288 12.1448416 9.108"></polygon>
                    <path d="M21.74408,4.617 C21.781107,6.849 20.3833394,9.099 17.2082779,9.099 C16.0974692,9.099 14.755242,9.099 13.6444334,9.099 L13.6444334,0.279 C14.755242,0.279 16.0974692,0.279 17.2082779,0.279 C20.3185422,0.288 21.6977963,2.439 21.74408,4.617 Z M15.3384166,7.506 L17.2082779,7.506 C19.2725307,7.506 20.0871237,6.048 20.0500968,4.608 C20.0130698,3.231 19.1799633,1.863 17.2082779,1.863 L15.3384166,1.863 L15.3384166,7.506 Z"></path>
                    <path d="M29.6308217,9.108 L22.8363752,9.108 C22.8363752,6.174 22.8363752,3.222 22.8363752,0.288 L29.6308217,0.288 L29.6308217,1.899 L24.5396152,1.899 L24.5396152,3.924 L29.4549437,3.924 L29.4549437,5.472 L24.5396152,5.472 L24.5396152,7.47 L29.6308217,7.47 L29.6308217,9.108 Z"></path>
                    <path d="M39.8687751,4.743 C39.8410049,7.02 38.4062103,9.306 35.2126353,9.306 C32.0283171,9.306 30.5472389,7.074 30.5472389,4.761 C30.5472389,2.439 32.0746008,0.108 35.2126353,0.108 C38.3414131,0.108 39.8965453,2.439 39.8687751,4.743 Z M32.2319654,4.788 C32.2689923,6.237 33.0743286,7.785 35.2126353,7.785 C37.3509421,7.785 38.1562784,6.219 38.1840486,4.77 C38.2118188,3.285 37.3509421,1.62 35.2126353,1.62 C33.0743286,1.62 32.1949384,3.294 32.2319654,4.788 Z"></path>
                    <polygon points="51.6526039 2.718 48.6904474 6.552 48.3572048 6.552 45.4691022 2.709 45.4691022 9.126 43.7566055 9.126 43.7566055 0.306 45.7282909 0.306 48.5701098 4.095 51.4119287 0.306 53.3651006 0.306 53.3651006 9.126 51.6526039 9.126"></polygon>
                    <path d="M61.7331927,9.108 L54.9387463,9.108 C54.9387463,6.174 54.9387463,3.222 54.9387463,0.288 L61.7331927,0.288 L61.7331927,1.899 L56.6419862,1.899 L56.6419862,3.924 L61.5573147,3.924 L61.5573147,5.472 L56.6419862,5.472 L56.6419862,7.47 L61.7331927,7.47 L61.7331927,9.108 Z"></path>
                    <path d="M71.0362155,4.617 C71.0732424,6.849 69.6754748,9.099 66.5004133,9.099 C65.3896047,9.099 64.0473775,9.099 62.9365688,9.099 L62.9365688,0.279 C64.0473775,0.279 65.3896047,0.279 66.5004133,0.279 C69.6106777,0.288 70.9991885,2.439 71.0362155,4.617 Z M64.630552,7.506 L66.5004133,7.506 C68.5646661,7.506 69.3792592,6.048 69.3422322,4.608 C69.3052053,3.231 68.4720988,1.863 66.5004133,1.863 L64.630552,1.863 L64.630552,7.506 Z"></path>
                    <polygon points="72.3229022 9.108 72.3229022 0.288 74.0168854 0.288 74.0168854 9.108"></polygon>
                    <path d="M82.0609917,7.443 L77.3215413,7.443 L76.5439752,9.108 L74.6926274,9.108 L78.7655926,0.288 L80.6354539,0.288 L84.708419,9.108 L82.8385578,9.108 L82.0609917,7.443 Z M79.6912665,2.142 L78.00654,5.895 L81.375993,5.895 L79.6912665,2.142 Z"></path>
                    <path d="M94.6871837,2.439 C94.076239,1.872 93.1690785,1.557 92.3822557,1.557 C90.4383405,1.557 89.2627347,2.997 89.2627347,4.806 C89.2627347,6.255 90.1328681,7.758 92.3822557,7.758 C93.0950246,7.758 93.7152261,7.605 94.4279951,7.056 L94.4279951,5.49 L92.1045535,5.49 L92.1045535,4.005 L95.992384,4.005 L95.992384,7.722 C95.0944803,8.721 93.9744148,9.306 92.372999,9.306 C88.966519,9.306 87.5780082,7.128 87.5780082,4.806 C87.5780082,2.322 89.1701673,0.027 92.372999,0.027 C93.5948885,0.027 94.8075214,0.477 95.742452,1.377 L94.6871837,2.439 Z"></path>
                    <path d="M105.31392,9.108 L103.277438,9.108 L100.63001,6.156 L98.9823107,6.156 L98.9823107,9.108 L97.2698139,9.108 L97.2698139,0.27 C98.7046085,0.27 100.14866,0.279 101.583454,0.279 C103.721761,0.288 104.851083,1.674 104.851083,3.204 C104.851083,4.41 104.277165,5.634 102.555412,5.976 L105.304663,8.991 L105.304663,9.108 L105.31392,9.108 Z M98.9915674,1.836 L98.9915674,4.662 L101.592711,4.662 C102.685006,4.662 103.147843,3.96 103.147843,3.249 C103.147843,2.538 102.666493,1.836 101.592711,1.836 L98.9915674,1.836 Z"></path>
                    <path d="M114.931672,4.743 C114.903902,7.02 113.469107,9.306 110.275532,9.306 C107.091214,9.306 105.610136,7.074 105.610136,4.761 C105.610136,2.439 107.137498,0.108 110.275532,0.108 C113.40431,0.108 114.959442,2.439 114.931672,4.743 Z M107.294862,4.788 C107.331889,6.237 108.137226,7.785 110.275532,7.785 C112.413839,7.785 113.219175,6.219 113.246946,4.77 C113.274716,3.285 112.413839,1.62 110.275532,1.62 C108.137226,1.62 107.257835,3.294 107.294862,4.788 Z"></path>
                    <path d="M124.142127,0.297 L124.142127,5.346 C124.142127,7.956 122.494428,9.288 120.21727,9.288 C118.041936,9.288 116.190589,8.001 116.190589,5.346 L116.190589,0.297 L117.884572,0.297 L117.884572,5.346 C117.884572,6.93 118.819502,7.776 120.226527,7.776 C121.633551,7.776 122.438887,6.858 122.438887,5.346 L122.438887,0.297 L124.142127,0.297 Z"></path>
                    <path d="M130.094211,6.507 L127.530094,6.507 L127.530094,9.099 L125.817597,9.099 L125.817597,0.279 C127.243135,0.279 128.668673,0.27 130.094211,0.27 C134.528189,0.27 134.537445,6.507 130.094211,6.507 Z M127.530094,4.986 L130.094211,4.986 C132.288058,4.986 132.269544,1.863 130.094211,1.863 L127.530094,1.863 L127.530094,4.986 Z"></path>
                </g>
                <polyline fill="#0092FF" points="16.0511855 0 32.139398 9.459 32.139398 26.487 16.0511855 35.937 0 26.487 0 9.459 16.0511855 0"></polyline>
                <polygon fill="#21A0ED" opacity="0.7" points="16.0511855 0 16.0511855 35.937 0 15.498 0 9.459"></polygon>
                <polygon fill="#00CFFF" opacity="0.4" points="0 26.487 16.0511855 0 0 9.459"></polygon>
                <polygon fill="#0FCDED" opacity="0.2" points="0 9.459 16.0511855 0 16.0511855 17.964"></polygon>
                <polygon fill="#00B1FF" opacity="0.6" points="16.0511855 35.937 0 15.498 25.7615048 30.231"></polygon>
                <polygon fill="#0FBCCE" opacity="0.1" points="0 26.487 16.0511855 17.964 16.0511855 35.937"></polygon>
                <polygon fill="#00F3FF" opacity="0.2" points="0 9.459 0 26.487 24.8173174 30.798 32.139398 26.487"></polygon>
                <polygon fill="#27E1FF" opacity="0.3" points="0 9.459 16.0511855 17.964 12.8576105 12.591 8.13667363 4.662"></polygon>
                <polygon fill="#00F3FF" opacity="0.2" points="16.0511855 0 16.0511855 17.964 32.139398 9.459"></polygon>
                <polygon fill="#00FFF8" opacity="0.3" points="16.0511855 0.018 32.139398 26.487 16.0511855 17.973"></polygon>
                <polygon fill="#0FCDED" opacity="0.2" points="16.0511855 0 32.139398 9.459 32.139398 26.487"></polygon>
                <polygon fill="#00CFFF" opacity="0.35" points="16.0511855 0 25.7615048 30.231 32.139398 9.459"></polygon>
                <path d="M13.8017979,23.634 C13.1167992,24.012 12.5613949,23.697 12.5613949,22.932 L12.5521382,14.364 C12.5521382,13.599 13.0982858,13.302 13.7740277,13.689 L21.3090133,18.099 C21.9847552,18.495 21.9754985,19.125 21.2904998,19.503 L13.8017979,23.634 Z" fill="#FFFFFF"></path>
            </g>
        </g>
    </g>
</svg>
